<svg width="30" height="30" viewBox="0 0 30 30" fill="none" xmlns="http://www.w3.org/2000/svg">
<path d="M14.9996 0C6.7287 0 0 6.729 0 15C0 23.2709 6.7287 30 14.9996 30C23.2708 30 30 23.2709 30 15C30 6.729 23.2708 0 14.9996 0ZM14.9996 28.0328C7.81365 28.0328 1.96725 22.1862 1.96725 15C1.96725 7.81373 7.81357 1.96725 14.9996 1.96725C22.1859 1.96725 28.0325 7.81373 28.0325 15C28.0327 22.1862 22.1859 28.0328 14.9996 28.0328Z" fill="#26CEA6"/>
<path d="M20.9608 14.0166H15.9836V9.03929C15.9836 8.49606 15.5432 8.05566 15 8.05566C14.4568 8.05566 14.0164 8.49614 14.0164 9.03929V14.0169H9.03929C8.49614 14.0169 8.05566 14.4574 8.05566 15.0005C8.05566 15.5437 8.49614 15.9841 9.03929 15.9841H14.0161V20.9613C14.0161 21.5044 14.4565 21.9448 14.9998 21.9448C15.5429 21.9448 15.9834 21.5044 15.9834 20.9613V15.9839H20.9609C21.504 15.9839 21.9445 15.5434 21.9445 15.0003C21.9445 14.4571 21.504 14.0166 20.9608 14.0166Z" fill="#26CEA6"/>
</svg>
